<svg width="117" height="24" viewBox="0 0 117 24" fill="none" xmlns="http://www.w3.org/2000/svg">
<path d="M17.5666 23.1818C16.0621 23.1459 14.7367 22.6434 13.6621 21.5666C9.68597 17.5464 5.67402 13.5622 1.66207 9.54205C-1.31107 6.56284 -0.12898 1.53766 3.88297 0.281364C5.99641 -0.364731 7.93075 0.101893 9.50687 1.68124C13.483 5.62959 17.3875 9.57795 21.3278 13.5263C22.4024 14.6031 23.0114 15.8953 23.083 17.4388C23.1905 19.9872 21.3636 22.3922 18.8562 22.9665C18.4621 23.0741 17.9964 23.11 17.5666 23.1818Z" fill="#DA1A5F"/>
<path d="M28.5264 0.0300293C31.5712 0.0300293 34.0429 2.47083 34.0429 5.55773C34.0429 8.64462 31.607 11.1213 28.5264 11.1572C25.4816 11.1931 22.9742 8.64462 22.9384 5.59362C22.9742 2.50672 25.4458 0.0300293 28.5264 0.0300293Z" fill="#DA1A5F"/>
<path d="M52.5949 19.4405L57.4689 0.793697H61.6039L54.7646 23.6856H51.9346L52.5949 19.4405ZM48.3341 0.793697L53.1766 19.4405L53.8841 23.6856H51.0541L44.2148 0.793697H48.3341Z" fill="#DA1A5F"/>
<path d="M79.2804 20.4939V23.6856H69.3438V20.4939H79.2804ZM70.35 0.793697V23.6856H66.5295V0.793697H70.35ZM77.944 10.3215V13.466H69.3438V10.3215H77.944ZM79.186 0.793697V4.00107H69.3438V0.793697H79.186Z" fill="#DA1A5F"/>
<path d="M97.0669 20.4939V23.6856H87.5548V20.4939H97.0669ZM88.5611 0.793697V23.6856H84.7405V0.793697H88.5611Z" fill="#DA1A5F"/>
<path d="M116.913 10.3687V14.2678C116.913 15.882 116.724 17.297 116.347 18.5129C115.98 19.7287 115.446 20.7455 114.743 21.563C114.052 22.3701 113.213 22.978 112.228 23.3868C111.253 23.7956 110.163 24 108.958 24C107.763 24 106.673 23.7956 105.687 23.3868C104.713 22.978 103.869 22.3701 103.156 21.563C102.454 20.7455 101.909 19.7287 101.521 18.5129C101.144 17.297 100.955 15.882 100.955 14.2678V10.3687C100.955 8.73353 101.144 7.30278 101.521 6.07643C101.898 4.8396 102.438 3.80716 103.14 2.97911C103.853 2.15107 104.697 1.52741 105.672 1.10815C106.657 0.68888 107.742 0.479248 108.926 0.479248C110.132 0.479248 111.222 0.68888 112.196 1.10815C113.182 1.52741 114.025 2.15107 114.728 2.97911C115.43 3.80716 115.97 4.8396 116.347 6.07643C116.724 7.30278 116.913 8.73353 116.913 10.3687ZM113.124 14.2678V10.3372C113.124 9.17375 113.03 8.178 112.841 7.34995C112.663 6.51142 112.396 5.83012 112.039 5.30603C111.683 4.77147 111.243 4.37841 110.718 4.12685C110.205 3.86481 109.607 3.73379 108.926 3.73379C108.266 3.73379 107.674 3.86481 107.149 4.12685C106.636 4.37841 106.196 4.77147 105.829 5.30603C105.472 5.83012 105.2 6.51142 105.011 7.34995C104.833 8.178 104.744 9.17375 104.744 10.3372V14.2678C104.744 15.4103 104.838 16.3956 105.027 17.2236C105.216 18.0412 105.488 18.712 105.845 19.2361C106.211 19.7497 106.657 20.1323 107.181 20.3838C107.705 20.6354 108.297 20.7612 108.958 20.7612C109.628 20.7612 110.226 20.6354 110.75 20.3838C111.274 20.1323 111.709 19.7497 112.055 19.2361C112.411 18.712 112.679 18.0412 112.857 17.2236C113.035 16.3956 113.124 15.4103 113.124 14.2678Z" fill="#DA1A5F"/>
</svg>
